<svg id="Layer_1" data-name="Layer 1" xmlns="http://www.w3.org/2000/svg" viewBox="0 0 49.01 43.19"><defs><style>.cls-1{fill:#574ea1;}.cls-2{fill:#fff;}</style></defs><title>Untitled-1</title><path class="cls-1" d="M20,0,0,9.75v19.5L20,39l20-9.75V9.75ZM38.54,28.54,20,37.58l-18.54-9V10.46L20,1.42l18.54,9Z" transform="translate(4.89 1.99)"/><polygon class="cls-1" points="40.98 13.64 40.98 26.52 39.44 26.52 39.44 14.39 24.89 7.3 11.27 13.94 21.39 13.94 24.89 18.18 28.38 13.94 33.82 13.94 27.61 21.49 31.75 26.52 29.94 26.52 25.8 21.49 30.97 15.2 29.16 15.2 24.89 20.39 20.62 15.2 8.79 15.2 8.79 13.64 24.89 5.79 40.98 13.64"/><polygon class="cls-1" points="40.98 27.77 40.98 29.33 24.89 37.18 8.79 29.33 8.79 16.46 10.34 16.46 10.34 28.58 24.89 35.67 38.51 29.03 28.38 29.03 24.89 24.79 21.4 29.03 15.96 29.03 22.17 21.49 18.03 16.46 19.84 16.46 23.98 21.49 18.8 27.77 20.62 27.77 24.89 22.59 29.16 27.77 40.98 27.77"/><rect class="cls-2" width="49.01" height="43.19"/></svg>