<svg id="Layer_1" data-name="Layer 1" xmlns="http://www.w3.org/2000/svg" viewBox="0 0 40 38.3"><defs><style>.cls-1{fill:#574ea1;}</style></defs><title>eagle-fake</title><path class="cls-1" d="M20,0,0,9.58V28.73L20,38.3l20-9.57V9.58ZM38.54,28,20,36.91,1.46,28V10.27L20,1.4l18.54,8.87Z"/><polygon class="cls-1" points="36.1 11.45 36.1 24.09 34.55 24.09 34.55 12.19 20 5.22 6.38 11.74 16.51 11.74 20 15.91 23.49 11.74 28.93 11.74 22.72 19.15 26.86 24.09 25.05 24.09 20.91 19.15 26.09 12.98 24.27 12.98 20 18.07 15.73 12.98 3.9 12.98 3.9 11.45 20 3.74 36.1 11.45"/><polygon class="cls-1" points="36.1 25.33 36.1 26.86 20 34.56 3.9 26.86 3.9 14.21 5.45 14.21 5.45 26.12 20 33.08 33.62 26.56 23.49 26.56 20 22.4 16.51 26.56 11.07 26.56 17.28 19.15 13.14 14.21 14.95 14.21 19.09 19.15 13.91 25.33 15.73 25.33 20 20.23 24.27 25.33 36.1 25.33"/></svg>