<svg id="Layer_1" data-name="Layer 1" xmlns="http://www.w3.org/2000/svg" viewBox="0 0 160 156"><defs><style>.cls-1{fill:#574ea1;}</style></defs><title>favicon-xenturion</title><path class="cls-1" d="M80,0,0,39v78l80,39,80-39V39Zm74.17,114.16L80,150.32,5.83,114.16V41.84L80,5.68l74.17,36.16Z"/><polygon class="cls-1" points="144.38 46.62 144.38 98.12 138.19 98.12 138.19 49.63 80 21.27 25.52 47.83 66.02 47.83 80 64.79 93.97 47.83 115.73 47.83 90.88 78 107.45 98.12 100.2 98.12 83.63 78 104.34 52.85 97.08 52.85 80 73.59 62.92 52.85 15.62 52.85 15.62 46.62 80 15.23 144.38 46.62"/><polygon class="cls-1" points="144.38 103.14 144.38 109.38 80 140.77 15.62 109.38 15.62 57.88 21.82 57.88 21.82 106.37 80 134.73 134.49 108.17 93.97 108.17 80 91.22 66.03 108.17 44.27 108.17 69.12 78 52.55 57.88 59.8 57.88 76.38 78 55.66 103.14 62.92 103.14 80 82.41 97.08 103.14 144.38 103.14"/></svg>